<svg xmlns="http://www.w3.org/2000/svg" xmlns:xlink="http://www.w3.org/1999/xlink" viewBox="0 0 4153.42 4795.93"><defs><style>.cls-1,.cls-10,.cls-5,.cls-6,.cls-7,.cls-8{fill:none;stroke-miterlimit:10;}.cls-1{stroke:#008272;stroke-width:130px;}.cls-2{clip-path:url(#clip-path);}.cls-3{fill:#212121;}.cls-4{fill:#353535;}.cls-5,.cls-6,.cls-7{stroke:#494949;}.cls-5{stroke-width:350px;}.cls-6{stroke-width:300px;}.cls-7{stroke-width:160px;}.cls-8{stroke:#00ffa3;}.cls-10,.cls-8{stroke-width:90px;}.cls-9{fill:#008471;}.cls-10{stroke:#3effa3;}.cls-11{fill:#00ffa3;}.cls-12{fill:#b2b2b2;}</style><clipPath id="clip-path"><path class="cls-1" d="M4088.35,3559.43V1236.55L2076.68,75.1,1052.52,666.4,65,1236.55V3559.43L2076.68,4720.87Z"/></clipPath></defs><g id="Layer_2" data-name="Layer 2"><g class="cls-2"><rect class="cls-3" x="-425.86" y="-102.01" width="5000" height="5000"/><rect class="cls-4" x="-426.32" y="855.64" width="5000" height="215.38"/><rect class="cls-4" x="368.4" y="2300.84" width="5000" height="194.29" transform="translate(5266.38 -470.41) rotate(90)"/><rect class="cls-4" x="1513.2" y="2026.58" width="5000" height="388.58" transform="translate(6234.07 -1792.34) rotate(90)"/><rect class="cls-4" x="-412.37" y="1220.41" width="5000" height="140.13"/><rect class="cls-4" x="-1902.35" y="2326.9" width="5000" height="194.29" transform="translate(3021.7 1826.4) rotate(90)"/><rect class="cls-4" x="-152.95" y="3625.94" width="5000" height="140.13"/><rect class="cls-4" x="-1042.51" y="4426.26" width="5000" height="126.72"/><rect class="cls-4" x="-325.52" y="4140.54" width="5000" height="193.84"/><path class="cls-5" d="M-675.89,3182.6H3131.85c212.58,0,384.92,206.83,384.92,462V6613.37"/><path class="cls-6" d="M-2246.12,3726.77H1613.59c215.49,0,390.18,208.4,390.18,465.47V7183.6"/><path class="cls-5" d="M1079.07-2299.76V1262c0,264.83,225.77,479.51,504.28,479.51h0c279.3,0,505.4-215.86,504.27-481.45l-15.09-3559.8"/><path class="cls-7" d="M7367.66,1983H3508c-215.49,0-390.18-206.58-390.18-461.39V-1443.5"/><path class="cls-8" d="M950.68,164.91c6.93,857-6,1510.8.05,2337.29,1.29,178.47,146.34,322.47,324.82,322.47H4229.36"/><rect class="cls-9" x="2663.66" y="1501.41" width="114.34" height="2644.77" transform="translate(5544.63 102.96) rotate(90)"/><path class="cls-10" d="M6275.44,2196.76c-914.36,7.4-1671.67,10.13-2570.07,17a156.05,156.05,0,0,0-154.85,156V5491.16"/><rect class="cls-9" x="3496.16" y="2718.21" width="111.87" height="1238.07"/><rect class="cls-9" x="3957.04" y="2112.73" width="110.72" height="199.74" transform="translate(1799.8 6225) rotate(-90)"/><rect class="cls-9" x="293.83" y="2945.19" width="110.72" height="1458.11"/><rect class="cls-9" x="892.76" y="575.38" width="110.72" height="1407.65"/><rect class="cls-9" x="2395.48" y="161.18" width="110.72" height="1731.94"/></g><path class="cls-1" d="M4088.35,3559.43V1236.55L2076.68,75.1,1052.52,666.4,65,1236.55V3559.43L2076.68,4720.87Z"/><path class="cls-11" d="M304.39,2874.18V2407.11q0-51.87,19-97.8t51.9-79.34a244.44,244.44,0,0,1,77.84-52.9q44.91-19.46,95.81-19.46t95.31,19.46a247.08,247.08,0,0,1,130.24,132.74q18.94,45.42,19,97.3T775,2504.42a245.4,245.4,0,0,1-51.4,79.34,240.49,240.49,0,0,1-77.85,53.39q-44.91,19.47-96.8,19.46-63.88,0-118.76-29.94v-89.82q48.89,35.93,115.76,35.93,35.94,0,65.37-12.47t49.9-34.43q20.45-21.95,31.44-52.4t11-66.37q0-35.93-11-66.36t-30.94-52.4a141.41,141.41,0,0,0-48.4-34.43q-28.44-12.47-64.37-12.48-34.95,0-63.37,12a140.55,140.55,0,0,0-48.91,33.93q-20.46,22-31.43,52.4t-11,67.36v467.07Z"/><path class="cls-11" d="M1527.91,2646.63H1355.25q-110.77,0-158.68-32.93-42.91-28.93-54.39-69.36t-11.48-106.29V2167.59h87.83v269.46q0,18,1,30.44t7,31.94q6,19.46,17,31.93t31.93,22q21,9.49,50.9,9.48h113.77V2167.59h87.83Z"/><path class="cls-11" d="M1657.64,2167.59h440.12q70.84,0,112.78,26.95,42.89,26.94,56.38,69.86t13.48,102.79v279.44h-87.83V2367.19q0-77.83-46.9-102.79-24-13-96.81-13h-40.92v395.21h-87.82V2251.42H1745.47v395.21h-87.83Z"/><path class="cls-11" d="M2400.15,1948H2490v459.08q0,78.85,40.42,122.26t111.27,43.41q73.85,0,115.77-42.41t41.92-123.26q0-76.83-45.41-121.25t-119.26-44.42q-62.88,0-108.78,35.93v-89.82q54.87-29.94,118.76-29.94,105.77,0,175.15,68.37t69.36,181.13q0,118.79-72.36,184.13t-182.13,65.37q-104.79,0-169.66-67.86t-64.87-181.64Z"/><path class="cls-11" d="M3228.47,2157.61q169.67,7,169.66,140.72,0,166.68-218.56,166.67h-40.92v-76.85h47.91q66.86,0,92.81-20.46t26-68.36q0-30.93-23-46.41t-58.89-15.47q-70.86,0-111.27,49.9t-40.42,119.76q0,73.88,43.41,119.76t113.27,45.91q62.88,0,102.8-30.94l59.88,58.88q-68.87,55.91-162.68,55.89-113.76,0-181.63-66.86T2979,2417.09q0-117.75,66.87-190.62T3228.47,2157.61Z"/><rect class="cls-9" x="845.33" y="1893.12" width="207.56" height="89.92" rx="2.93"/><rect class="cls-9" x="1249.71" y="2777.03" width="207.56" height="89.92" rx="2.93" transform="translate(4175.48 1468.5) rotate(90)"/><rect class="cls-9" x="3448.74" y="2662.78" width="207.56" height="105.83" rx="2.93"/><rect class="cls-9" x="3808.75" y="2163.64" width="207.56" height="89.92" rx="2.93" transform="translate(6121.14 -1703.93) rotate(90)"/><rect class="cls-9" x="247.41" y="2872.81" width="207.56" height="89.92" rx="2.93" transform="translate(702.38 5835.53) rotate(180)"/><rect class="cls-9" x="2347.05" y="1893.12" width="207.56" height="89.92" rx="2.93"/></g><g id="Layer_5" data-name="Layer 5"><path class="cls-12" d="M2055.84,4536.53l8.25-4.76,7,10.18.36-.21c-.26-9.71,3.07-17.94,9.74-21.79a16.93,16.93,0,0,1,7-2.43l3.1,9.85a19.15,19.15,0,0,0-6.26,2.32c-5,2.88-8.82,10-7.08,22.2l21.85,37.85-9.94,5.74Z"/><path class="cls-12" d="M2097.93,4512.23l8.25-4.76,4.77,6.3.36-.21c2.75-7.57,7.13-15.11,14-19.1,15.16-8.75,30.08-1.68,40.66,16.63,11.55,20,6.34,38.72-7.13,46.49-5.46,3.15-12.39,3.75-20.29,2.66l6.19,10.17,11.48,19.89-9.94,5.74Zm57.77,4.82c-7.5-13-16.91-19.19-28.06-12.75-5,2.87-8.34,8.53-11.15,17.11l17.86,30.93c7.92,1.4,14.12.09,18-2.15C2162.06,4544.59,2164.1,4531.6,2155.7,4517.05Z"/><path class="cls-12" d="M2192.42,4520.43l-43-74.48,9.95-5.74,43.41,75.2c1.83,3.16,3.86,3.6,5.32,2.76a9.83,9.83,0,0,0,2-1.5l5.67,6.75a15.47,15.47,0,0,1-5.14,4.26C2203.15,4532,2197.39,4529,2192.42,4520.43Z"/><path class="cls-12" d="M2216.9,4493.36,2195.33,4456l10.06-5.81,20.8,36c6.38,11,12.38,13.88,20.14,9.4,6.07-3.51,8.56-9,10.15-19.12l-24.16-41.85,9.95-5.74,34,59-8.25,4.76-6.17-8.73-.36.21c-1.75,9.58-5.12,17.19-13.25,21.88C2235.78,4513.18,2225.58,4508.4,2216.9,4493.36Z"/><path class="cls-12" d="M2262.16,4417.41l8.25-4.76,5.75,8,.36-.21c1.88-8.52,5.54-16.46,12.58-20.52,9-5.18,16.27-3.74,22.76,1.9,2.34-10.25,5.74-18.36,12.9-22.49,12.13-7,22.57-2.36,31.25,12.68l21.57,37.36-9.94,5.74-20.8-36c-6.38-11-12.62-13.74-20-9.47-4.61,2.67-7.59,8.43-9.55,17.64l24.65,42.7-10,5.74-20.79-36c-6.38-11-12.62-13.74-20.14-9.4-4.37,2.52-7.59,8.43-9.55,17.64l24.65,42.7-9.95,5.74Z"/><path class="cls-12" d="M2402.46,4406.92l-.36.21,2.65,6.56-8,4.62L2346.89,4332l9.94-5.75,13.59,23.53,5.92,10.82c2.6-7.81,7.12-15.11,13.67-18.89,15.29-8.83,30.2-1.75,40.71,16.44,11.62,20.13,6.41,38.83-7,46.61C2418.21,4407.86,2410.41,4408.64,2402.46,4406.92Zm18-42.75c-7.49-13-16.9-19.19-28.06-12.74-5,2.87-8.58,8.67-11.15,17.11l17.86,30.92c7.81,1.48,14.12.1,18-2.14C2426.84,4391.72,2428.88,4378.73,2420.48,4364.17Z"/><path class="cls-12" d="M2442.51,4352.75c-11.14-19.29-5-38.55,8.51-46.32,15-8.68,29.77-2.79,39.5,14.07a45.14,45.14,0,0,1,2.93,5.91l-39.79,23c7.94,12.07,20.21,15.67,31.49,9.16a30.78,30.78,0,0,0,12-13.09l7.3,4.52a40.5,40.5,0,0,1-15.9,17.27C2472.79,4376.34,2453.64,4372,2442.51,4352.75Zm38.44-28.66c-6.87-11.89-15.91-15.24-25.13-9.91-8.25,4.76-11.92,15.77-6.41,28.11Z"/><path class="cls-12" d="M2490,4285.9l8.25-4.76,7,10.18.36-.21c-.27-9.71,3.07-17.94,9.74-21.79a16.88,16.88,0,0,1,7-2.43l3.1,9.85a19.15,19.15,0,0,0-6.26,2.32c-5,2.87-8.82,9.94-7.08,22.2l21.85,37.84-9.95,5.75Z"/><path class="cls-12" d="M2553.59,4319.66c-2.66-4.6-1.2-9.65,2.8-12s9-1,11.64,3.63a8.34,8.34,0,1,1-14.44,8.33Z"/><path class="cls-12" d="M2542.79,4230.65c-2.24-3.89-.68-8.18,3.2-10.42s8.39-1.45,10.63,2.43.68,8.18-3.2,10.42S2545,4234.41,2542.79,4230.65Zm12.54,17.5,9.94-5.74,34,58.95-9.95,5.74Z"/><path class="cls-12" d="M2597.88,4263c-11.41-19.77-5.07-38.47,9.37-46.8s33.8-4.48,45.21,15.29c11.28,19.53,4.94,38.23-9.5,46.57S2609.16,4282.57,2597.88,4263Zm44.28-25.56c-7.85-13.58-20-18.88-30.15-13s-11.66,19-3.82,32.61,19.94,18.57,30,12.76S2649.93,4251,2642.16,4237.48Z"/></g></svg>