<svg xmlns="http://www.w3.org/2000/svg"
  xmlns:xlink="http://www.w3.org/1999/xlink" viewBox="4.41 5.435 4157.76 4801.305">
  <defs>
    <style>.cls-1,.cls-11,.cls-4,.cls-6,.cls-7,.cls-8,.cls-9{fill:none;stroke-miterlimit:10;}.cls-1{stroke:#008272;stroke-width:130px;}.cls-2{clip-path:url(#clip-path);}.cls-3{fill:#212121;}.cls-4{stroke:blue;stroke-width:450px;}.cls-5{fill:#353535;}.cls-6,.cls-7,.cls-8{stroke:#494949;}.cls-6{stroke-width:350px;}.cls-7{stroke-width:300px;}.cls-8{stroke-width:160px;}.cls-9{stroke:#00ffa3;}.cls-11,.cls-9{stroke-width:90px;}.cls-10{fill:#008471;}.cls-11{stroke:#3effa3;}.cls-12{fill:#00ffa3;}</style>
    <clipPath id="clip-path">
      <path class="cls-1" d="M4092.76,3564.81V1241.93L2081.09,80.49,1056.93,671.79,69.41,1241.93V3564.81L2081.09,4726.25Z"/>
    </clipPath>
  </defs>
  <g id="Layer_2" data-name="Layer 2">
    <g class="cls-2">
      <rect class="cls-3" x="1820.26" y="2198.49" width="5000" height="5000" transform="translate(-2241.71 -2295.12)"/>
      <path class="cls-4" d="M-1066.6,1173.89"/>
      <rect class="cls-5" x="1819.8" y="3156.14" width="5000" height="215.38" transform="translate(-2241.71 -2295.12)"/>
      <rect class="cls-5" x="372.81" y="2306.23" width="5000" height="194.29" transform="translate(7517.89 1825.68) translate(-2241.71 -2295.12) rotate(90)"/>
      <rect class="cls-5" x="1517.61" y="2031.96" width="5000" height="388.58" transform="translate(8485.58 503.76) translate(-2241.71 -2295.12) rotate(90)"/>
      <rect class="cls-5" x="1833.75" y="3520.92" width="5000" height="140.13" transform="translate(-2241.71 -2295.12)"/>
      <rect class="cls-5" x="-1897.94" y="2332.29" width="5000" height="194.29" transform="translate(5273.21 4122.49) translate(-2241.71 -2295.12) rotate(90)"/>
      <rect class="cls-5" x="2093.18" y="5926.44" width="5000" height="140.13" transform="translate(-2241.71 -2295.12)"/>
      <rect class="cls-5" x="1203.62" y="6726.76" width="5000" height="126.72" transform="translate(-2241.71 -2295.12)"/>
      <rect class="cls-5" x="1920.61" y="6441.04" width="5000" height="193.84" transform="translate(-2241.71 -2295.12)"/>
      <path class="cls-6" d="M-671.49,3188H3136.26c212.58,0,384.92,206.82,384.92,462V6618.76"/>
      <path class="cls-7" d="M-2241.71,3732.16H1618c215.49,0,390.18,208.39,390.18,465.47V7189"/>
      <path class="cls-6" d="M1083.48-2294.37V1267.36c0,264.83,225.77,479.52,504.28,479.52h0c279.3,0,505.39-215.87,504.27-481.45l-15.09-3559.8"/>
      <path class="cls-8" d="M7372.07,1988.42H3512.35c-215.48,0-390.17-206.57-390.17-461.39V-1438.12"/>
      <path class="cls-9" d="M955.09,170.3c6.93,857-6,1510.79,0,2337.29,1.29,178.47,146.34,322.47,324.82,322.47h2953.8"/>
      <rect class="cls-10" x="2668.07" y="1506.8" width="114.34" height="2644.77" transform="translate(7796.14 2399.06) translate(-2241.71 -2295.12) rotate(90)"/>
      <path class="cls-11" d="M6279.84,2202.15c-914.36,7.39-1671.66,10.12-2570.06,17a156,156,0,0,0-154.85,156V5496.55"/>
      <rect class="cls-10" x="5742.28" y="5018.71" width="111.87" height="1238.07" transform="translate(-2241.71 -2295.12)"/>
      <rect class="cls-10" x="3961.45" y="2118.12" width="110.72" height="199.74" transform="translate(4040.54 8529.91) translate(-2241.71 -2295.12) rotate(-90)"/>
      <rect class="cls-10" x="2539.96" y="5245.69" width="110.72" height="1458.11" transform="translate(-2241.71 -2295.12)"/>
      <rect class="cls-10" x="3138.88" y="2875.89" width="110.72" height="1407.65" transform="translate(-2241.71 -2295.12)"/>
      <rect class="cls-10" x="4641.6" y="2461.68" width="110.72" height="1731.94" transform="translate(-2241.71 -2295.12)"/>
    </g>
    <path class="cls-1" d="M4092.76,3564.81V1241.93L2081.09,80.49,1056.93,671.79,69.41,1241.93V3564.81L2081.09,4726.25Z"/>
    <path class="cls-12" d="M308.8,2879.56V2412.5q0-51.89,19-97.81t51.89-79.34a244.57,244.57,0,0,1,77.85-52.89Q502.41,2163,553.31,2163t95.31,19.46a247,247,0,0,1,130.23,132.73q19,45.43,19,97.31t-18.47,97.3A245.27,245.27,0,0,1,728,2589.14a240.52,240.52,0,0,1-77.85,53.4Q605.2,2662,553.31,2662q-63.88,0-118.77-29.94v-89.82q48.9,35.93,115.77,35.93,35.93,0,65.37-12.48a143.93,143.93,0,0,0,49.9-34.43Q686,2509.32,697,2478.87t11-66.37q0-35.92-11-66.37t-30.94-52.39a141.53,141.53,0,0,0-48.4-34.44q-28.44-12.47-64.37-12.47-34.95,0-63.38,12a140.47,140.47,0,0,0-48.9,33.93q-20.46,22-31.44,52.39t-11,67.37v467.06Z"/>
    <path class="cls-12" d="M1532.32,2652H1359.66q-110.78,0-158.68-32.94-42.92-28.93-54.39-69.36t-11.48-106.28V2173h87.83v269.46q0,18,1,30.44t7,31.93q6,19.47,17,31.94t31.93,22q21,9.49,50.9,9.48h113.77V2173h87.83Z"/>
    <path class="cls-12" d="M1662.05,2173h440.12q70.85,0,112.77,26.94,42.9,27,56.39,69.86t13.47,102.8V2652H2197V2372.58q0-77.85-46.91-102.8-23.94-13-96.8-13h-40.92V2652h-87.82V2256.81H1749.88V2652h-87.83Z"/>
    <path class="cls-12" d="M2404.56,1953.42h89.82V2412.5q0,78.84,40.42,122.25t111.27,43.42q73.84,0,115.77-42.42t41.92-123.25q0-76.85-45.41-121.26t-119.26-44.41q-62.88,0-108.79,35.93v-89.82q54.88-29.94,118.77-29.94,105.76,0,175.15,68.36t69.36,181.14q0,118.77-72.36,184.13T2639.09,2662q-104.79,0-169.66-67.87t-64.87-181.63Z"/>
    <path class="cls-12" d="M3232.88,2163q169.65,7,169.66,140.72,0,166.68-218.56,166.66h-40.92v-76.84H3191q66.84,0,92.81-20.46t25.95-68.37q0-30.91-23-46.4t-58.88-15.47q-70.87,0-111.27,49.9T3076.2,2412.5q0,73.86,43.41,119.76t113.27,45.91q62.88,0,102.8-30.94l59.88,58.88Q3326.7,2662,3232.88,2662q-113.76,0-181.63-66.87t-67.87-172.65q0-117.75,66.87-190.62T3232.88,2163Z"/>
    <rect class="cls-10" x="3091.46" y="4193.62" width="207.56" height="89.92" rx="2.93" transform="translate(-2241.71 -2295.12)"/>
    <rect class="cls-10" x="1254.12" y="2782.41" width="207.56" height="89.92" rx="2.93" transform="translate(6426.98 3764.59) translate(-2241.71 -2295.12) rotate(90)"/>
    <rect class="cls-10" x="5694.86" y="4963.28" width="207.56" height="105.83" rx="2.93" transform="translate(-2241.71 -2295.12)"/>
    <rect class="cls-10" x="3813.16" y="2169.03" width="207.56" height="89.92" rx="2.93" transform="translate(8372.64 592.16) translate(-2241.71 -2295.12) rotate(90)"/>
    <rect class="cls-10" x="251.82" y="2878.19" width="207.56" height="89.92" rx="2.93" transform="translate(2952.91 8141.42) translate(-2241.71 -2295.12) rotate(180)"/>
    <rect class="cls-10" x="4593.18" y="4193.62" width="207.56" height="89.92" rx="2.93" transform="translate(-2241.71 -2295.12)"/>
  </g>
</svg>
